<svg width="30" height="40" viewBox="0 0 30 40" fill="none" xmlns="http://www.w3.org/2000/svg">
<g clip-path="url(#clip0_423_30008)">
<path d="M29.7538 22.3616L27.2422 18.342C27.2422 18.342 27.2329 18.3252 27.2273 18.3177L27.0292 18.0019C26.6555 17.4021 26.0089 17.0433 25.3025 17.0414L21.2568 17.0283L20.9746 17.4806L16.1403 25.217L15.873 25.6449L17.8987 28.8815C18.2725 29.4833 18.919 29.842 19.631 29.842H25.3007C25.9996 29.842 26.6611 29.4739 27.0311 28.8834L27.231 28.5639C27.231 28.5639 27.2385 28.5545 27.2404 28.5508L29.7556 24.5256C30.1686 23.8678 30.1686 23.0175 29.7556 22.3616H29.7538ZM28.9876 24.0453L26.4723 28.0705C26.4611 28.0892 26.448 28.1041 26.4368 28.1191C26.349 28.2181 26.235 28.2312 26.1846 28.2312C26.1266 28.2312 25.9846 28.2144 25.893 28.0686L23.3778 24.0435C23.3497 23.9986 23.3254 23.9519 23.303 23.9014C23.2806 23.8528 23.2638 23.8043 23.2488 23.7538C23.1928 23.552 23.1928 23.3352 23.2488 23.1334C23.2769 23.0344 23.3198 22.9353 23.3759 22.8456L25.8874 18.8242C25.8874 18.8242 25.8912 18.8186 25.893 18.8148C25.9528 18.7251 26.0276 18.684 26.093 18.6709C26.1192 18.6635 26.1416 18.6616 26.1603 18.6579C26.1696 18.6579 26.1789 18.6579 26.1883 18.6579C26.2462 18.6579 26.3901 18.6765 26.4798 18.8223L28.9913 22.8419C29.2212 23.2081 29.2212 23.6791 28.9913 24.0453H28.9876Z" fill="#1D1F20"/>
<path d="M22.3217 12.6357C22.7328 11.976 22.7328 11.1276 22.3217 10.4717L19.8101 6.45216L19.6008 6.11392C19.2252 5.51407 18.5787 5.15527 17.8685 5.15527H12.1989C11.4907 5.15527 10.8441 5.51407 10.4666 6.11579L0.313942 22.3641C0.110254 22.6893 0 23.0649 0 23.4461C0 23.8273 0.108385 24.2029 0.312074 24.5262L3.03478 28.8859C3.41038 29.4876 4.05696 29.8445 4.76519 29.8445H10.4348C11.1468 29.8445 11.7934 29.4858 12.1671 28.884L12.3746 28.5551C12.3746 28.5551 12.3746 28.5551 12.3746 28.5514L12.3783 28.5439L14.4021 25.3073L20.4006 15.7078L22.3179 12.6375L22.3217 12.6357ZM21.7293 11.5537C21.7293 11.7611 21.6714 11.9704 21.5536 12.1554L11.6084 28.073C11.5187 28.2169 11.3748 28.2337 11.3169 28.2337C11.2589 28.2337 11.1169 28.2169 11.0254 28.073L8.51195 24.046C8.28396 23.6816 8.28396 23.2125 8.51195 22.8444L18.4572 6.93054C18.5469 6.78478 18.6908 6.76797 18.7487 6.76797C18.8066 6.76797 18.9505 6.78478 19.0421 6.93241L21.5536 10.952C21.6714 11.137 21.7293 11.3462 21.7293 11.5537Z" fill="#1D1F20"/>
</g>
<defs>
<clipPath id="clip0_423_30008">
<rect width="30" height="40" fill="white"/>
</clipPath>
</defs>
</svg>
