<svg width="119" height="40" viewBox="0 0 119 40" fill="none" xmlns="http://www.w3.org/2000/svg">
<path d="M29.7538 22.3616L27.2422 18.342C27.2422 18.342 27.2329 18.3252 27.2273 18.3177L27.0292 18.0019C26.6555 17.4021 26.0089 17.0433 25.3025 17.0414L21.2568 17.0283L20.9746 17.4806L16.1403 25.217L15.873 25.6449L17.8987 28.8815C18.2725 29.4833 18.919 29.842 19.631 29.842H25.3007C25.9996 29.842 26.6611 29.4739 27.0311 28.8834L27.231 28.5639C27.231 28.5639 27.2385 28.5545 27.2404 28.5508L29.7556 24.5256C30.1686 23.8678 30.1686 23.0175 29.7556 22.3616H29.7538ZM28.9876 24.0453L26.4723 28.0705C26.4611 28.0892 26.448 28.1041 26.4368 28.1191C26.349 28.2181 26.235 28.2312 26.1846 28.2312C26.1266 28.2312 25.9846 28.2144 25.893 28.0686L23.3778 24.0435C23.3497 23.9986 23.3254 23.9519 23.303 23.9014C23.2806 23.8528 23.2638 23.8043 23.2488 23.7538C23.1928 23.552 23.1928 23.3352 23.2488 23.1334C23.2769 23.0344 23.3198 22.9353 23.3759 22.8456L25.8874 18.8242C25.8874 18.8242 25.8912 18.8186 25.893 18.8148C25.9528 18.7251 26.0276 18.684 26.093 18.6709C26.1192 18.6635 26.1416 18.6616 26.1603 18.6579C26.1696 18.6579 26.1789 18.6579 26.1883 18.6579C26.2462 18.6579 26.3901 18.6765 26.4798 18.8223L28.9913 22.8419C29.2212 23.2081 29.2212 23.6791 28.9913 24.0453H28.9876Z" fill="#1D1F20"/>
<path d="M22.3217 12.6357C22.7328 11.976 22.7328 11.1276 22.3217 10.4717L19.8101 6.45216L19.6008 6.11392C19.2252 5.51407 18.5787 5.15527 17.8685 5.15527H12.1989C11.4907 5.15527 10.8441 5.51407 10.4666 6.11579L0.313942 22.3641C0.110254 22.6893 0 23.0649 0 23.4461C0 23.8273 0.108385 24.2029 0.312074 24.5262L3.03478 28.8859C3.41038 29.4876 4.05696 29.8445 4.76519 29.8445H10.4348C11.1468 29.8445 11.7934 29.4858 12.1671 28.884L12.3746 28.5551C12.3746 28.5551 12.3746 28.5551 12.3746 28.5514L12.3783 28.5439L14.4021 25.3073L20.4006 15.7078L22.3179 12.6375L22.3217 12.6357ZM21.7293 11.5537C21.7293 11.7611 21.6714 11.9704 21.5536 12.1554L11.6084 28.073C11.5187 28.2169 11.3748 28.2337 11.3169 28.2337C11.2589 28.2337 11.1169 28.2169 11.0254 28.073L8.51195 24.046C8.28396 23.6816 8.28396 23.2125 8.51195 22.8444L18.4572 6.93054C18.5469 6.78478 18.6908 6.76797 18.7487 6.76797C18.8066 6.76797 18.9505 6.78478 19.0421 6.93241L21.5536 10.952C21.6714 11.137 21.7293 11.3462 21.7293 11.5537Z" fill="#1D1F20"/>
<path d="M43.2114 16.7812H39.5393V23.5405C39.5393 24.1038 39.6801 24.5154 39.9617 24.7754C40.2434 25.0354 40.655 25.187 41.1966 25.2304C41.7382 25.252 42.4098 25.2412 43.2114 25.1979V29C40.33 29.325 38.2936 29.0542 37.102 28.1876C35.9321 27.321 35.3472 25.772 35.3472 23.5405V16.7812H32.52V12.7515H35.3472V9.46935L39.5393 8.20197V12.7515H43.2114V16.7812ZM55.4084 12.7515H59.6005V29H55.4084V27.0827C54.1519 28.6642 52.3862 29.455 50.1114 29.455C47.945 29.455 46.0818 28.6317 44.522 26.9852C42.9838 25.317 42.2147 23.2805 42.2147 20.8758C42.2147 18.471 42.9838 16.4454 44.522 14.7988C46.0818 13.1307 47.945 12.2966 50.1114 12.2966C52.3862 12.2966 54.1519 13.0873 55.4084 14.6689V12.7515ZM47.6742 24.1905C48.5191 25.0354 49.5915 25.4578 50.8914 25.4578C52.1912 25.4578 53.2636 25.0354 54.1086 24.1905C54.9751 23.3239 55.4084 22.219 55.4084 20.8758C55.4084 19.5326 54.9751 18.4385 54.1086 17.5936C53.2636 16.727 52.1912 16.2937 50.8914 16.2937C49.5915 16.2937 48.5191 16.727 47.6742 17.5936C46.8293 18.4385 46.4068 19.5326 46.4068 20.8758C46.4068 22.219 46.8293 23.3239 47.6742 24.1905ZM64.5424 17.3661C64.5424 17.7994 64.824 18.1569 65.3873 18.4385C65.9722 18.6985 66.6763 18.9368 67.4996 19.1534C68.3228 19.3484 69.1461 19.6084 69.9693 19.9334C70.7926 20.2367 71.4859 20.7566 72.0491 21.4932C72.6341 22.2298 72.9266 23.1506 72.9266 24.2555C72.9266 25.9236 72.2983 27.2127 71.0417 28.1226C69.8069 29.0108 68.2578 29.455 66.3947 29.455C63.0583 29.455 60.7835 28.1659 59.5703 25.5878L63.21 23.5405C63.6866 24.9487 64.7482 25.6528 66.3947 25.6528C67.8895 25.6528 68.637 25.187 68.637 24.2555C68.637 23.8222 68.3445 23.4755 67.7596 23.2155C67.1963 22.9339 66.503 22.6848 65.6798 22.4681C64.8565 22.2515 64.0332 21.9807 63.21 21.6557C62.3867 21.3307 61.6826 20.8216 61.0977 20.1283C60.5344 19.4134 60.2528 18.5252 60.2528 17.4636C60.2528 15.8604 60.8377 14.6039 62.0076 13.694C63.1992 12.7624 64.6723 12.2966 66.4272 12.2966C67.7487 12.2966 68.9511 12.5999 70.0343 13.2065C71.1176 13.7914 71.9733 14.6364 72.6016 15.7413L69.0269 17.6911C68.507 16.5862 67.6404 16.0337 66.4272 16.0337C65.8856 16.0337 65.4306 16.1529 65.0623 16.3912C64.7157 16.6295 64.5424 16.9545 64.5424 17.3661ZM88.0039 29H83.1293L77.2149 21.6232V29H73.0228V6.25216H77.2149V19.9009L82.8044 12.7515H87.8089L81.277 20.7783L88.0039 29ZM89.5764 10.8017C88.8831 10.8017 88.2765 10.5526 87.7566 10.0543C87.2583 9.53435 87.0091 8.92774 87.0091 8.23447C87.0091 7.5412 87.2583 6.93459 87.7566 6.41464C88.2765 5.89469 88.8831 5.63472 89.5764 5.63472C90.2913 5.63472 90.8979 5.89469 91.3962 6.41464C91.9162 6.93459 92.1762 7.5412 92.1762 8.23447C92.1762 8.92774 91.9162 9.53435 91.3962 10.0543C90.8979 10.5526 90.2913 10.8017 89.5764 10.8017ZM87.4966 29V12.7515H91.6887V29H87.4966ZM101.668 9.82682C99.3711 9.6535 98.2229 10.5742 98.2229 12.5891V12.7515H101.668V16.7812H98.2229V29H94.0308V16.7812H91.691V12.7515H94.0308V12.5891C94.0308 10.2926 94.6699 8.54861 95.9481 7.35706C97.2263 6.1655 99.1328 5.64555 101.668 5.7972V9.82682ZM112.218 12.7515H116.702L110.788 29C109.943 31.3398 108.817 33.0296 107.408 34.0695C106.022 35.1311 104.289 35.6077 102.209 35.4994V31.5998C103.335 31.6214 104.224 31.3831 104.874 30.8848C105.545 30.3865 106.076 29.5849 106.466 28.48L99.804 12.7515H104.386L108.611 23.6705L112.218 12.7515Z" fill="#1D1F20"/>
</svg>
