<svg width="20" height="20" viewBox="0 0 20 20" fill="none" xmlns="http://www.w3.org/2000/svg">
<path fill-rule="evenodd" clip-rule="evenodd" d="M3.73473 8.26384C3.73473 6.60256 4.39482 5.00933 5.56978 3.83463C6.74475 2.65994 8.33835 2 10 2C11.6617 2 13.2552 2.65994 14.4302 3.83463C15.6052 5.00933 16.2653 6.60256 16.2653 8.26384V11.632L17.896 14.8928C17.9711 15.0428 18.0065 15.2096 17.999 15.3773C17.9915 15.5449 17.9412 15.7078 17.8529 15.8505C17.7647 15.9933 17.6414 16.1111 17.4948 16.1928C17.3482 16.2745 17.1832 16.3174 17.0153 16.3173H13.4674C13.2683 17.0853 12.8198 17.7655 12.1922 18.251C11.5646 18.7366 10.7935 19 10 19C9.20646 19 8.43539 18.7366 7.80781 18.251C7.18024 17.7655 6.73171 17.0853 6.53262 16.3173H2.98469C2.81685 16.3174 2.65179 16.2745 2.50519 16.1928C2.35858 16.1111 2.23531 15.9933 2.14706 15.8505C2.05882 15.7078 2.00854 15.5449 2.00099 15.3773C1.99345 15.2096 2.0289 15.0428 2.10397 14.8928L3.73473 11.632V8.26384ZM8.44979 16.3173C8.60691 16.5894 8.83288 16.8153 9.105 16.9723C9.37712 17.1294 9.68579 17.2121 10 17.2121C10.3142 17.2121 10.6229 17.1294 10.895 16.9723C11.1671 16.8153 11.3931 16.5894 11.5502 16.3173H8.44979ZM10 3.78967C8.8131 3.78967 7.67482 4.26105 6.83556 5.10012C5.9963 5.93919 5.52481 7.07721 5.52481 8.26384V11.632C5.52479 11.9097 5.46013 12.1836 5.33595 12.432L4.28876 14.5277H15.7121L14.6649 12.432C14.5405 12.1836 14.4755 11.9098 14.4752 11.632V8.26384C14.4752 7.07721 14.0037 5.93919 13.1644 5.10012C12.3252 4.26105 11.1869 3.78967 10 3.78967Z" fill="#2A2A2A"/>
</svg>
